<svg xmlns="http://www.w3.org/2000/svg" xmlns:xlink="http://www.w3.org/1999/xlink" width="1em" height="1em" preserveAspectRatio="xMidYMid meet" viewBox="0 0 48 48" style="-ms-transform: rotate(360deg); -webkit-transform: rotate(360deg); transform: rotate(360deg);"><g fill="none"><g stroke="currentColor" stroke-linecap="round" stroke-width="4" clip-path="url(#IconifyId-1826b4332b9-ab77b4-2671)"><path d="m34.021 42.494l3.74-3.74a6 6 0 0 0 0-8.485v0a6 6 0 0 0-8.485 0L27.045 32.5m-9.97-7l6.544-6.544a6 6 0 0 0 0-8.486v0a6 6 0 0 0-8.485 0l-7.071 7.071m9.012 7.959L8.77 33.806a6 6 0 0 0 0 8.485v0a6 6 0 0 0 8.485 0l9.766-9.766"/><path stroke-linejoin="round" d="M13 12V4m25 26l5-5"/></g><defs><clipPath id="IconifyId-1826b4332b9-ab77b4-2671"><path fill="currentColor" d="M0 0h48v48H0z"/></clipPath></defs></g><rect x="0" y="0" width="48" height="48" fill="rgba(0, 0, 0, 0)" /></svg>