<svg xmlns="http://www.w3.org/2000/svg" width="1em" height="1em" viewBox="0 0 256 256"><path fill="currentColor" d="M128 200c-16 0-42.5-.2-72.9-17.8s-40.3-39.5-43.4-50.8a7.9 7.9 0 0 1 5.7-9.8c7.3-1.9 20.1-3.6 36.5.2c-6.7-22.2-3.3-39.5-.4-48.2a7.9 7.9 0 0 1 9.3-5.3a77.5 77.5 0 0 1 31.3 15.1A106 106 0 0 0 88 120c0 58.2 40 80 40 80Zm110.6-78.4c-7.3-1.9-20.1-3.6-36.5.2c6.7-22.2 3.3-39.5.4-48.2a7.9 7.9 0 0 0-9.3-5.3a77.5 77.5 0 0 0-31.3 15.1A106 106 0 0 1 168 120c0 58.2-40 80-40 80c16 0 42.5-.2 72.9-17.8s40.3-39.5 43.4-50.8a7.9 7.9 0 0 0-5.7-9.8Z" opacity=".2"/><path fill="currentColor" d="M250.5 121.3a15.9 15.9 0 0 0-9.9-7.5a77.1 77.1 0 0 0-27.9-1.8a86.7 86.7 0 0 0-2.6-40.9a15.9 15.9 0 0 0-18.5-10.7a82.3 82.3 0 0 0-26.2 10.8a94.4 94.4 0 0 0-27.8-34.4a15.9 15.9 0 0 0-19.2 0a94.4 94.4 0 0 0-27.8 34.4a82.3 82.3 0 0 0-26.2-10.8a15.9 15.9 0 0 0-18.5 10.7a86.7 86.7 0 0 0-2.6 40.9a77.1 77.1 0 0 0-27.9 1.8A15.9 15.9 0 0 0 4 133.6c3.5 12.6 14.3 36.7 47.1 55.6s61.4 18.8 76.8 18.8h.2c15.4 0 44.2 0 76.8-18.8s43.6-43 47.1-55.6a16 16 0 0 0-1.5-12.3Zm-55.6-45.2c2.8 8.4 5.4 23.5-.3 42.9l-.3 1.1a100.6 100.6 0 0 1-9.5 21.5a120.3 120.3 0 0 1-17.4 23.1c5.1-12 8.6-26.7 8.6-44.7a116.4 116.4 0 0 0-4.7-33.6a66.6 66.6 0 0 1 23.6-10.3ZM128 49.6c9.6 7.2 32 28.4 32 70.4s-22.7 63.6-32 70.4c-9.3-6.8-32-27.9-32-70.4s22.4-63.2 32-70.4ZM61.1 76.1a66.6 66.6 0 0 1 23.6 10.3A116.4 116.4 0 0 0 80 120c0 18 3.5 32.7 8.6 44.7a120.3 120.3 0 0 1-17.4-23.1a99.1 99.1 0 0 1-9.5-21.6l-.3-.9c-5.8-19.5-3.1-34.6-.3-43Zm-41.8 53.2c6.2-1.6 15.9-2.8 28.4-.6a117.1 117.1 0 0 0 9.7 20.9a137.9 137.9 0 0 0 33.2 38.6a123.4 123.4 0 0 1-31.5-12.9c-27.8-16.1-36.8-35.8-39.8-46Zm177.6 46a123.4 123.4 0 0 1-31.5 12.9a137.9 137.9 0 0 0 33.2-38.6a117.1 117.1 0 0 0 9.7-20.9a68.8 68.8 0 0 1 28.3.5c-2.9 10.3-11.9 30-39.7 46.1Z"/></svg>